<svg width="22" height="22" viewBox="0 0 22 22" fill="none" xmlns="http://www.w3.org/2000/svg">
<g id="streamline:dashboard-3" clip-path="url(#clip0_593_25)">
<path id="Vector" d="M19.9737 9.41812H13.478C13.2627 9.41812 13.0561 9.50367 12.9039 9.65594C12.7516 9.80822 12.666 10.0147 12.666 10.2301V19.9737C12.666 20.189 12.7516 20.3956 12.9039 20.5478C13.0561 20.7001 13.2627 20.7856 13.478 20.7856H19.9737C20.1891 20.7856 20.3956 20.7001 20.5479 20.5478C20.7002 20.3956 20.7857 20.189 20.7857 19.9737V10.2301C20.7857 10.0147 20.7002 9.80822 20.5479 9.65594C20.3956 9.50367 20.1891 9.41812 19.9737 9.41812ZM19.9737 0.785645H13.478C13.2627 0.785645 13.0561 0.871191 12.9039 1.02346C12.7516 1.17574 12.666 1.38226 12.666 1.59761V4.86171C12.666 5.07706 12.7516 5.28359 12.9039 5.43586C13.0561 5.58813 13.2627 5.67368 13.478 5.67368H19.9737C20.1891 5.67368 20.3956 5.58813 20.5479 5.43586C20.7002 5.28359 20.7857 5.07706 20.7857 4.86171V1.59761C20.7857 1.38226 20.7002 1.17574 20.5479 1.02346C20.3956 0.871191 20.1891 0.785645 19.9737 0.785645ZM8.0934 0.785645H1.59767C1.38232 0.785645 1.1758 0.871191 1.02352 1.02346C0.871252 1.17574 0.785706 1.38226 0.785706 1.59761V11.3412C0.785706 11.5565 0.871252 11.7631 1.02352 11.9153C1.1758 12.0676 1.38232 12.1532 1.59767 12.1532H8.0934C8.30874 12.1532 8.51527 12.0676 8.66754 11.9153C8.81982 11.7631 8.90536 11.5565 8.90536 11.3412V1.59761C8.90536 1.38226 8.81982 1.17574 8.66754 1.02346C8.51527 0.871191 8.30874 0.785645 8.0934 0.785645ZM8.0934 15.8976H1.59767C1.38232 15.8976 1.1758 15.9832 1.02352 16.1354C0.871252 16.2877 0.785706 16.4942 0.785706 16.7096V19.9737C0.785706 20.189 0.871252 20.3956 1.02352 20.5478C1.1758 20.7001 1.38232 20.7856 1.59767 20.7856H8.0934C8.30874 20.7856 8.51527 20.7001 8.66754 20.5478C8.81982 20.3956 8.90536 20.189 8.90536 19.9737V16.7096C8.90536 16.4942 8.81982 16.2877 8.66754 16.1354C8.51527 15.9832 8.30874 15.8976 8.0934 15.8976Z" stroke="#4E6776" stroke-width="1.3" stroke-linecap="round" stroke-linejoin="round"/>
</g>
<defs>
<clipPath id="clip0_593_25">
<rect width="22" height="22" fill="white"/>
</clipPath>
</defs>
</svg>
