<svg width="34" height="34" viewBox="0 0 34 34" fill="none" xmlns="http://www.w3.org/2000/svg">
<g id="Group">
<path id="Shape" fill-rule="evenodd" clip-rule="evenodd" d="M33.32 17.3865C33.32 16.181 33.2118 15.0219 33.0109 13.9092H17V20.4851H26.1491C25.755 22.6101 24.5573 24.4106 22.7568 25.616V29.8815H28.2509C31.4655 26.9219 33.32 22.5637 33.32 17.3865Z" fill="#4285F4"/>
<path id="Shape_2" fill-rule="evenodd" clip-rule="evenodd" d="M16.9999 34C21.59 34 25.4381 32.4777 28.2509 29.8814L22.7568 25.6159C21.2345 26.6359 19.2872 27.2386 16.9999 27.2386C12.5722 27.2386 8.82448 24.2482 7.48766 20.23H1.80811V24.6345C4.60538 30.1905 10.3545 34 16.9999 34Z" fill="#34A853"/>
<path id="Shape_3" fill-rule="evenodd" clip-rule="evenodd" d="M7.48774 20.23C7.14774 19.21 6.95456 18.1205 6.95456 17C6.95456 15.8796 7.14774 14.79 7.48774 13.77V9.36548H1.80818C0.656819 11.6605 0 14.2568 0 17C0 19.7432 0.656819 22.3396 1.80818 24.6346L7.48774 20.23Z" fill="#FBBC05"/>
<path id="Shape_4" fill-rule="evenodd" clip-rule="evenodd" d="M16.9999 6.76137C19.4959 6.76137 21.7368 7.6191 23.4986 9.30365L28.3745 4.42773C25.4304 1.68455 21.5822 0 16.9999 0C10.3545 0 4.60538 3.80955 1.80811 9.36547L7.48766 13.77C8.82448 9.75183 12.5722 6.76137 16.9999 6.76137Z" fill="#EA4335"/>
</g>
</svg>
