<svg width="23" height="24" viewBox="0 0 23 24" fill="none" xmlns="http://www.w3.org/2000/svg">
<g id="Frame 8">
<g id="Group">
<g id="Group_2">
<path id="Vector" d="M12.7493 7.75549L12.7486 10.1657C12.7493 10.7964 12.5004 11.3377 11.8656 11.5688V16.935" stroke="#4E6776" stroke-width="0.75" stroke-miterlimit="10" stroke-linecap="square"/>
<path id="Vector_2" d="M9.40674 7.7561V10.1657C9.40674 10.7964 9.65527 11.3377 10.2904 11.5692L10.2907 16.9353" stroke="#4E6776" stroke-width="0.75" stroke-miterlimit="10" stroke-linecap="square"/>
<path id="Vector_3" d="M11.0781 9.79529V7.75549" stroke="#4E6776" stroke-width="0.75" stroke-miterlimit="10" stroke-linecap="square"/>
<path id="Vector_4" d="M6.08958 16.935V13.0908L5.271 12.8599L6.05506 8.5053C6.26612 7.74303 7.16985 7.4598 7.16985 7.4598C7.52655 7.3387 7.68895 7.71134 7.69684 8.08767L7.69717 16.935" stroke="#4E6776" stroke-width="0.75" stroke-miterlimit="10" stroke-linecap="square" stroke-linejoin="round"/>
</g>
<path id="Vector_5" d="M16.4386 4.09985H1.22217V22.9167H16.4386V4.09985Z" stroke="#4E6776" stroke-miterlimit="10" stroke-linejoin="round"/>
<path id="Vector_6" d="M6.96448 2.77958V0.916626H22.181V19.7329H18.3468" stroke="#4E6776" stroke-miterlimit="10" stroke-linejoin="round"/>
<path id="Vector_7" d="M6.96448 0.916626L16.4501 4.09982" stroke="#4E6776" stroke-miterlimit="10" stroke-linejoin="round"/>
<path id="Vector_8" d="M4.68054 18.766H12.9804" stroke="#4E6776" stroke-width="0.9" stroke-miterlimit="10" stroke-linecap="square"/>
<path id="Vector_9" d="M4.68054 20.5864H12.9804" stroke="#4E6776" stroke-width="0.9" stroke-miterlimit="10" stroke-linecap="square"/>
</g>
</g>
</svg>
